# xmcd
#
# Track frame offsets: 
#        150
#        13995
#        27977
#        45325
#        61793
#        77255
#        96023
#        107685
#        120995
#        135425
#        150598
#        165685
#        182480
#        199215
#        214663
#        228248
#        240515
#        258982
#        273840
#        287715
#        305222
#
# Disc length: 4238 seconds
#
# Revision: 0
# Processed by: cddbd v1.5.2PL0 Copyright (c) Steve Scherf et al.
# Submitted via: ExactAudioCopy v0.99pb4
#
DISCID=0c108c15
DTITLE=Mark Chesnutt - 1990~2007 All Billboard Hot Country Songs (Disc
DTITLE=1)
DYEAR=2008
DGENRE=Country
TTITLE0=Brother Jukebox
TTITLE1=Bubba Shot The Jukebox
TTITLE2=Ol' Country
TTITLE3=Too Cold At Home
TTITLE4=Thank God  For Believers
TTITLE5=Almost Goodbye
TTITLE6=Goin' Through The Big D
TTITLE7=It Sure Is Monday
TTITLE8=It Wouldn't Hurt To Have Wings
TTITLE9=I Just Wanted You To Know
TTITLE10=She Was
TTITLE11=She Dreams
TTITLE12=Gonna Get A Life
TTITLE13=Wherever You Are
TTITLE14=Let It Rain
TTITLE15=It's A Little Too Late
TTITLE16=I Don't Want To Miss A Thing
TTITLE17=It's Not Over (featuring Vince Gill and Alison Krauss)
TTITLE18=Lost In The Feeling
TTITLE19=Fallin' Never Felt So Good
TTITLE20=Your Love Is A Miracle
EXTD=
EXTT0=
EXTT1=
EXTT2=
EXTT3=
EXTT4=
EXTT5=
EXTT6=
EXTT7=
EXTT8=
EXTT9=
EXTT10=
EXTT11=
EXTT12=
EXTT13=
EXTT14=
EXTT15=
EXTT16=
EXTT17=
EXTT18=
EXTT19=
EXTT20=
PLAYORDER=
